<?xml version="1.0" encoding="utf-8"?>
<!-- Generator: Adobe Illustrator 22.1.0, SVG Export Plug-In . SVG Version: 6.00 Build 0)  -->
<svg version="1.1" id="Layer_1" xmlns="http://www.w3.org/2000/svg" xmlns:xlink="http://www.w3.org/1999/xlink" x="0px" y="0px"
	 viewBox="0 0 36.8 36.8" style="enable-background:new 0 0 36.8 36.8;" xml:space="preserve">
<style type="text/css">
	.st0{fill:url(#SVGID_1_);}
	.st1{fill-rule:evenodd;clip-rule:evenodd;fill:#FFFFFF;}
	.st2{fill:url(#SVGID_2_);}
	.st3{fill:url(#SVGID_3_);}
	.st4{fill:#FFFFFF;}
	.st5{fill:url(#SVGID_4_);}
</style>
<g>
	<g>
		<linearGradient id="SVGID_1_" gradientUnits="userSpaceOnUse" x1="0" y1="18.3988" x2="36.7977" y2="18.3988">
			<stop  offset="0" style="stop-color:#FF4949"/>
			<stop  offset="1" style="stop-color:#FCB045"/>
		</linearGradient>
		<path class="st0" d="M30.5,36.8H6.2C2.8,36.8,0,34,0,30.5V6.2C0,2.8,2.8,0,6.2,0h24.3c3.4,0,6.2,2.8,6.2,6.2v24.3
			C36.8,34,34,36.8,30.5,36.8z"/>
	</g>
	<path class="st1" d="M21.3,12.1c0.7,0,1.4,0,2.1,0c0.1,0,0.2,0,0.3,0V8.5c-0.4,0-0.8-0.1-1.1-0.1c-0.7,0-1.4-0.1-2.1-0.1
		c-1.1,0-2.1,0.3-3,0.9c-1,0.7-1.6,1.8-1.8,3c-0.1,0.5-0.1,1-0.1,1.5c0,0.8,0,1.6,0,2.4v0.3h-3.4v4h3.4v10h4.2v-10H23
		c0.2-1.3,0.3-2.6,0.5-4c-0.3,0-0.5,0-0.8,0c-1,0-3.2,0-3.2,0s0-2,0-2.8C19.7,12.5,20.4,12.1,21.3,12.1z"/>
</g>
</svg>
