<?xml version="1.0" encoding="utf-8"?>
<!-- Generator: Adobe Illustrator 22.1.0, SVG Export Plug-In . SVG Version: 6.00 Build 0)  -->
<svg version="1.1" id="Layer_1" xmlns="http://www.w3.org/2000/svg" xmlns:xlink="http://www.w3.org/1999/xlink" x="0px" y="0px"
	 viewBox="0 0 36.8 36.8" style="enable-background:new 0 0 36.8 36.8;" xml:space="preserve">
<style type="text/css">
	.st0{fill:url(#SVGID_1_);}
	.st1{fill-rule:evenodd;clip-rule:evenodd;fill:#FFFFFF;}
	.st2{fill:url(#SVGID_2_);}
	.st3{fill:url(#SVGID_3_);}
	.st4{fill:#FFFFFF;}
	.st5{fill:url(#SVGID_4_);}
</style>
<g>
	<g>
		<linearGradient id="SVGID_1_" gradientUnits="userSpaceOnUse" x1="0" y1="18.3988" x2="36.7977" y2="18.3988">
			<stop  offset="0" style="stop-color:#FF4949"/>
			<stop  offset="1" style="stop-color:#FCB045"/>
		</linearGradient>
		<path class="st0" d="M30.5,36.8H6.2C2.8,36.8,0,34,0,30.5V6.2C0,2.8,2.8,0,6.2,0h24.3c3.4,0,6.2,2.8,6.2,6.2v24.3
			C36.8,34,34,36.8,30.5,36.8z"/>
	</g>
	<g>
		<path class="st4" d="M29,13.1c-0.1-1.4-0.7-2.7-1.7-3.7c-1.1-1.1-2.5-1.5-3.9-1.6c-2.5-0.1-8.5-0.2-10.6,0.1
			c-2.4,0.4-4,1.8-4.6,4.2c-0.5,1.8-0.4,10.2-0.1,12.1c0.4,2.5,1.9,4.1,4.3,4.7c1.7,0.4,10,0.4,11.9,0.1c2.5-0.4,4.1-1.9,4.7-4.3
			C29.3,22.7,29.1,14.7,29,13.1z M27,23.8c-0.3,1.9-1.5,3-3.4,3.2c-1.7,0.2-9.5,0.3-11.1-0.2c-1.5-0.4-2.4-1.5-2.7-3
			C9.6,22.4,9.5,15,9.8,13c0.3-1.9,1.5-3,3.4-3.2c1.9-0.2,8.7-0.2,10.6,0c1.9,0.3,3,1.5,3.2,3.4C27.2,15,27.3,21.9,27,23.8z
			 M18.4,12.9c-3,0-5.5,2.5-5.5,5.5c0,3,2.5,5.5,5.5,5.5c3,0,5.5-2.5,5.5-5.5C23.9,15.4,21.4,12.9,18.4,12.9z M18.4,22
			c-2,0-3.5-1.6-3.5-3.6c0-2,1.6-3.5,3.6-3.5c2,0,3.5,1.6,3.5,3.6C21.9,20.4,20.3,22,18.4,22z M25.4,12.7c0,0.7-0.6,1.3-1.3,1.3
			c-0.7,0-1.3-0.6-1.3-1.3c0-0.7,0.6-1.3,1.3-1.3C24.8,11.4,25.4,12,25.4,12.7z"/>
		<path class="st4" d="M29,13.1c-0.1-1.4-0.7-2.7-1.7-3.7c-1.1-1.1-2.5-1.5-3.9-1.6c-2.5-0.1-8.5-0.2-10.6,0.1
			c-2.4,0.4-4,1.8-4.6,4.2c-0.5,1.8-0.4,10.2-0.1,12.1c0.4,2.5,1.9,4.1,4.3,4.7c1.7,0.4,10,0.4,11.9,0.1c2.5-0.4,4.1-1.9,4.7-4.3
			C29.3,22.7,29.1,14.7,29,13.1z M27,23.8c-0.3,1.9-1.5,3-3.4,3.2c-1.7,0.2-9.5,0.3-11.1-0.2c-1.5-0.4-2.4-1.5-2.7-3
			C9.6,22.4,9.5,15,9.8,13c0.3-1.9,1.5-3,3.4-3.2c1.9-0.2,8.7-0.2,10.6,0c1.9,0.3,3,1.5,3.2,3.4C27.2,15,27.3,21.9,27,23.8z
			 M18.4,12.9c-3,0-5.5,2.5-5.5,5.5c0,3,2.5,5.5,5.5,5.5c3,0,5.5-2.5,5.5-5.5C23.9,15.4,21.4,12.9,18.4,12.9z M18.4,22
			c-2,0-3.5-1.6-3.5-3.6c0-2,1.6-3.5,3.6-3.5c2,0,3.5,1.6,3.5,3.6C21.9,20.4,20.3,22,18.4,22z M25.4,12.7c0,0.7-0.6,1.3-1.3,1.3
			c-0.7,0-1.3-0.6-1.3-1.3c0-0.7,0.6-1.3,1.3-1.3C24.8,11.4,25.4,12,25.4,12.7z"/>
	</g>
</g>
</svg>
