<?xml version="1.0" encoding="utf-8"?>
<!-- Generator: Adobe Illustrator 22.1.0, SVG Export Plug-In . SVG Version: 6.00 Build 0)  -->
<svg version="1.1" id="Layer_1" xmlns="http://www.w3.org/2000/svg" xmlns:xlink="http://www.w3.org/1999/xlink" x="0px" y="0px"
	 viewBox="0 0 36.8 36.8" style="enable-background:new 0 0 36.8 36.8;" xml:space="preserve">
<style type="text/css">
	.st0{fill:url(#SVGID_1_);}
	.st1{fill-rule:evenodd;clip-rule:evenodd;fill:#FFFFFF;}
	.st2{fill:url(#SVGID_2_);}
	.st3{fill:url(#SVGID_3_);}
	.st4{fill:#FFFFFF;}
	.st5{fill:url(#SVGID_4_);}
</style>
<g>
	<linearGradient id="SVGID_1_" gradientUnits="userSpaceOnUse" x1="0" y1="18.3988" x2="36.7977" y2="18.3988">
		<stop  offset="0" style="stop-color:#FF4949"/>
		<stop  offset="1" style="stop-color:#FCB045"/>
	</linearGradient>
	<path class="st0" d="M30.5,36.8H6.2C2.8,36.8,0,34,0,30.5V6.2C0,2.8,2.8,0,6.2,0h24.3c3.4,0,6.2,2.8,6.2,6.2v24.3
		C36.8,34,34,36.8,30.5,36.8z"/>
	<path class="st1" d="M10.4,25.1c-0.8-0.3-1.3-0.8-1.6-1.5C8.1,21.7,7.9,14,9.2,12.4c0.4-0.5,1-0.8,1.7-0.9
		c3.5-0.4,14.3-0.3,15.5,0.1c0.7,0.3,1.2,0.7,1.5,1.5c0.7,1.9,0.8,8.9-0.1,10.7c-0.2,0.5-0.6,0.9-1.1,1.1
		C25.5,25.7,12.1,25.7,10.4,25.1z M15.9,21.5c2.1-1.1,4.2-2.2,6.3-3.3c-2.1-1.1-4.2-2.2-6.3-3.3C15.9,17.1,15.9,19.3,15.9,21.5z"/>
</g>
</svg>
