<?xml version="1.0" encoding="UTF-8"?> <svg xmlns="http://www.w3.org/2000/svg" xmlns:xlink="http://www.w3.org/1999/xlink" id="Layer_1" data-name="Layer 1" viewBox="0 0 144.02 28.06"><defs><style> .deezer-1 { fill: url(#linear-gradient); } .deezer-2 { fill: url(#linear-gradient-2); } .deezer-3 { fill: url(#linear-gradient-3); } .deezer-4 { fill: url(#linear-gradient-4); } </style><linearGradient id="linear-gradient" y1="6.85" x2="28.5" y2="6.85" gradientTransform="matrix(1, 0, 0, -1, 0, 30)" gradientUnits="userSpaceOnUse"><stop offset="0.18" stop-color="#fa9e02"></stop><stop offset="0.35" stop-color="#ce5f47"></stop><stop offset="0.51" stop-color="#b1396c"></stop><stop offset="0.69" stop-color="#583589"></stop><stop offset="0.86" stop-color="#3157a4"></stop><stop offset="1" stop-color="#327fb1"></stop></linearGradient><linearGradient id="linear-gradient-2" x1="25.45" y1="21.22" x2="25.45" y2="12.55" gradientTransform="matrix(1, 0, 0, -1, 0, 30)" gradientUnits="userSpaceOnUse"><stop offset="0.33" stop-color="#44ad6c"></stop><stop offset="0.73" stop-color="#38a184"></stop></linearGradient><linearGradient id="linear-gradient-3" x1="7.48" y1="14.4" x2="13.62" y2="14.4" gradientTransform="matrix(1, 0, 0, -1, 0, 30)" gradientUnits="userSpaceOnUse"><stop offset="0.18" stop-color="#fa9e02"></stop><stop offset="1" stop-color="#de6d47"></stop></linearGradient><linearGradient id="linear-gradient-4" x1="7.48" y1="9.4" x2="13.62" y2="9.4" gradientTransform="matrix(1, 0, 0, -1, 0, 30)" gradientUnits="userSpaceOnUse"><stop offset="0" stop-color="#fa9e02"></stop><stop offset="0.77" stop-color="#ce5f47"></stop><stop offset="0.97" stop-color="#ce4447"></stop></linearGradient></defs><title>deezer</title><g><path d="M48.5,25.1c-.1.1-.2.2-.2.3a6.68,6.68,0,0,1-4.7,2.5,10.4,10.4,0,0,1-4.3-.5,7.75,7.75,0,0,1-4.7-4.5,11.25,11.25,0,0,1,.5-10.1,8,8,0,0,1,6.4-4.2,7.36,7.36,0,0,1,4.4.7,6.55,6.55,0,0,1,2.5,2.2V.7c0-.7,0-.7.6-.7h4c.6,0,.6,0,.6.6V26.9c0,.7.1.6-.6.6H49.3c-.5,0-.5,0-.5-.6a8.42,8.42,0,0,1-.3-1.8Zm.1-6.8a5.5,5.5,0,0,0-.5-2.6A4.6,4.6,0,0,0,44,12.9a4.52,4.52,0,0,0-4.5,2.5,5.94,5.94,0,0,0-.3,5.2,4.41,4.41,0,0,0,3.9,3,4.57,4.57,0,0,0,4.7-2.3A5.21,5.21,0,0,0,48.6,18.3Zm36.2.9h-6c-.3,0-.4,0-.3.4A4.16,4.16,0,0,0,80.8,23a5.1,5.1,0,0,0,4.2.3A3.6,3.6,0,0,0,87.5,21c.1-.1.1-.2.1-.4s.2-.3.4-.2l3.6,1.5c.4.1.4.2.2.5a8.23,8.23,0,0,1-6.5,5.3,11.09,11.09,0,0,1-6.7-.8,8.9,8.9,0,0,1-5-6,10.33,10.33,0,0,1,1.1-8.2,8.84,8.84,0,0,1,6.7-4.3,9.39,9.39,0,0,1,6.1,1.2,7.44,7.44,0,0,1,3.7,5.8,11.45,11.45,0,0,1-.1,3.2c-.1.5-.1.5-.6.5-1.8.1-3.8.1-5.7.1Zm-2.4-3.4h3.5c.5,0,.5,0,.5-.5a2.65,2.65,0,0,0-1.6-2.2,4.53,4.53,0,0,0-3-.4,4,4,0,0,0-3.2,2.7c-.1.4-.1.4.3.4ZM66.1,19.2h-6a.27.27,0,0,0-.3.3A4.74,4.74,0,0,0,61,22.2a4.93,4.93,0,0,0,3.2,1.4,10.87,10.87,0,0,0,1.8-.1A3.74,3.74,0,0,0,68.8,21c.2-.5.2-.5.7-.3,1.1.4,2.3.9,3.4,1.4.4.1.4.2.2.5a8.17,8.17,0,0,1-5.4,5,11.13,11.13,0,0,1-7.2-.3,8.63,8.63,0,0,1-5.2-5.2,10.52,10.52,0,0,1,.6-9,8.38,8.38,0,0,1,6.9-4.5,10.51,10.51,0,0,1,4.7.4,7.42,7.42,0,0,1,5.1,6.4,9.16,9.16,0,0,1-.1,3.3c-.1.4-.1.5-.5.5Zm-2.3-3.4h3.6c.4,0,.4,0,.4-.4a2.46,2.46,0,0,0-1.4-2.2,4.57,4.57,0,0,0-4.9.2,4.26,4.26,0,0,0-1.5,2c-.1.4-.1.4.3.4Zm56.8,3.4h-6a.27.27,0,0,0-.3.3,3.89,3.89,0,0,0,1.8,3.1,5.56,5.56,0,0,0,5.3.5,3.64,3.64,0,0,0,2-2.2c.2-.6.2-.6.8-.3,1.1.4,2.2.9,3.4,1.3.4.2.4.2.2.5a8.21,8.21,0,0,1-6.2,5.2,11.11,11.11,0,0,1-6.5-.5,8.55,8.55,0,0,1-5.1-5.4,10.37,10.37,0,0,1,.4-8.1,8.51,8.51,0,0,1,7.1-5.1,9.51,9.51,0,0,1,5,.6,7.28,7.28,0,0,1,4.7,5.6,10.77,10.77,0,0,1,.1,4c-.1.4-.1.4-.5.4C124.5,19.2,122.6,19.2,120.6,19.2Zm-2.3-3.4h3.6c.4,0,.4,0,.4-.4a2.72,2.72,0,0,0-1.1-2,4.44,4.44,0,0,0-3.7-.7,3.77,3.77,0,0,0-3,2.7c-.2.4-.1.4.3.4Zm-16-2.5-.5.5c-3,2.9-5.9,5.8-8.9,8.6a2.34,2.34,0,0,0-.8,1.8,24.32,24.32,0,0,1,0,2.7c0,.6,0,.6.6.6h15.9c.5,0,.5,0,.5-.5V23.2c0-.2-.1-.2-.3-.2H98.6c1.6-1.6,3.2-3.1,4.7-4.6,1.7-1.7,3.4-3.4,5.2-5a.91.91,0,0,0,.3-.7V9.4c0-.4,0-.4-.4-.4H93c-.5,0-.5,0-.5.5v3.3c0,.6,0,.6.6.6h9.2C102.2,13.3,102.3,13.3,102.3,13.3Zm31.9-2.4V9.3c0-.5,0-.5-.5-.5h-4.2c-.5,0-.5,0-.5.5V27.1c0,.5,0,.5.5.5h4c.6,0,.6,0,.6-.6V15.1a2.56,2.56,0,0,1,2.9-2.4,2.15,2.15,0,0,1,2,2v.8c0,.4,0,.4.4.4h4.1c.4,0,.4,0,.4-.4a7.57,7.57,0,0,0,0-2.6,4.91,4.91,0,0,0-2.3-3.6,5.65,5.65,0,0,0-3.6-.8,4.66,4.66,0,0,0-3.7,2.3c0,.1,0,.1-.1.1Z"></path><path class="deezer-1" d="M28.5,18.8H22.4v3.6h6.1Zm0,5.1H22.4v3.6h6.1ZM21,18.8H14.9v3.6H21Zm0,5.1H14.9v3.6H21Zm-7.4,0H7.5v3.6h6.1Zm-7.5,0H0v3.6H6.1Z"></path><path class="deezer-2" d="M28.5,12.4H22.4V8.8h6.1Zm0,1.4H22.4v3.6h6.1Z"></path><rect class="deezer-3" x="7.5" y="13.8" width="6.1" height="3.6"></rect><rect class="deezer-4" x="7.5" y="18.8" width="6.1" height="3.6"></rect></g></svg> 