<?xml version="1.0" encoding="UTF-8"?> <svg xmlns="http://www.w3.org/2000/svg" viewBox="0 0 179 36"><defs><style> .facebook-svg-1 { fill: #004f9c; } </style></defs><title>facebook</title><g id="facebook"><path id="_Path_" data-name="&lt;Path&gt;" class="facebook-svg-1" d="M14.49,6.18c-2.1,0-2.7.93-2.7,3v3.39h5.58l-.56,5.5h-5V34.71H5.08V18.05H.57v-5.5H5.08V9.25C5.08,3.71,7.32.78,13.56.78a31.25,31.25,0,0,1,3.9.23V6.18"></path><path id="_Compound_Path_" data-name="&lt;Compound Path&gt;" class="facebook-svg-1" d="M17.84,22.93c0-6.19,2.93-10.84,9.07-10.84A6.59,6.59,0,0,1,33.29,16v-3.4h6.42V34.71H33.29V31.36c-.93,2.14-3,3.81-6.38,3.81-6.14,0-9.07-4.65-9.07-10.84m6.7.09c0,3.31,1.21,5.49,4.33,5.49,2.74,0,4.14-2,4.14-5.16V22.51c0-3.16-1.4-5.16-4.14-5.16-3.12,0-4.33,2.19-4.33,5.49Z"></path><path id="_Path_2" data-name="&lt;Path&gt;" class="facebook-svg-1" d="M53.67,12.09a12.25,12.25,0,0,1,6.42,1.49L58.6,18.33a10.41,10.41,0,0,0-4.47-1c-3.63,0-5.21,2.09-5.21,5.68v1.3c0,3.59,1.58,5.68,5.21,5.68a10.57,10.57,0,0,0,4.47-1l1.49,4.74a12.25,12.25,0,0,1-6.42,1.49c-7.86,0-11.45-4.23-11.45-11v-1c0-6.8,3.59-11,11.45-11"></path><path id="_Compound_Path_2" data-name="&lt;Compound Path&gt;" class="facebook-svg-1" d="M61,24.47v-2c0-6.28,3.58-10.42,10.89-10.42,6.88,0,9.91,4.19,9.91,10.33V26H67.68c.14,3,1.49,4.37,5.21,4.37A19,19,0,0,0,80,29l1.21,4.61a21.64,21.64,0,0,1-8.61,1.63C64.14,35.22,61,31,61,24.47m6.7-2.89h8.09V21c0-2.42-1-4.33-3.9-4.33s-4.19,1.91-4.19,4.88"></path><path id="_Compound_Path_3" data-name="&lt;Compound Path&gt;" class="facebook-svg-1" d="M106.63,24.33c0,6.19-3,10.84-9.12,10.84-3.35,0-5.68-1.68-6.61-3.81v3.35H84.57V1.43l6.7-.6V15.62a6.7,6.7,0,0,1,6.24-3.53c6.14,0,9.12,4.65,9.12,10.84m-6.7-.14c0-3.12-1.21-5.44-4.42-5.44-2.75,0-4.24,1.95-4.24,5.12v2.32c0,3.17,1.49,5.12,4.24,5.12,3.21,0,4.42-2.32,4.42-5.44Z"></path><path id="_Compound_Path_4" data-name="&lt;Compound Path&gt;" class="facebook-svg-1" d="M108.86,24.19V23.07c0-6.37,3.63-11,11-11s11,4.61,11,11v1.12c0,6.38-3.63,11-11,11s-11-4.6-11-11m15.36-1.58c0-2.93-1.21-5.26-4.33-5.26s-4.33,2.33-4.33,5.26v2c0,2.94,1.21,5.26,4.33,5.26s4.33-2.32,4.33-5.26Z"></path><path id="_Compound_Path_5" data-name="&lt;Compound Path&gt;" class="facebook-svg-1" d="M133.15,24.19V23.07c0-6.37,3.63-11,11-11s11,4.61,11,11v1.12c0,6.38-3.63,11-11,11s-11-4.6-11-11m15.36-1.58c0-2.93-1.21-5.26-4.33-5.26s-4.33,2.33-4.33,5.26v2c0,2.94,1.21,5.26,4.33,5.26s4.33-2.32,4.33-5.26Z"></path><polyline id="_Path_3" data-name="&lt;Path&gt;" class="facebook-svg-1" points="164.42 23.12 171.03 12.55 178.15 12.55 171.22 23.49 178.43 34.71 171.31 34.71 164.42 23.86 164.42 34.71 157.72 34.71 157.72 1.43 164.42 0.83"></polyline></g></svg> 