<?xml version="1.0" encoding="UTF-8"?> <svg xmlns="http://www.w3.org/2000/svg" xmlns:xlink="http://www.w3.org/1999/xlink" viewBox="0 0 191 39"><defs><style> .pandora-svg-1 { fill: none; } .pandora-svg-2 { fill: #339bd6; } .pandora-svg-3 { clip-path: url(#clip-path); } .pandora-svg-4 { opacity: 0.2; } .pandora-svg-5 { clip-path: url(#clip-path-2); } .pandora-svg-6 { fill: #fff; } </style><clipPath id="clip-path"><rect class="pandora-svg-1" x="241.81" y="90.94" width="144.37" height="35.13"></rect></clipPath><clipPath id="clip-path-2"><rect class="pandora-svg-1" x="163.48" y="3.27" width="12.5" height="212.57"></rect></clipPath></defs><title>pandora</title><g id="pandora"><path class="pandora-svg-2" d="M109.84.35c0,.44,0,.88,0,1.32V31.16h-4.61V29.24a12.57,12.57,0,0,1-11.53,2.18,12.06,12.06,0,0,1-6.69-5,12.44,12.44,0,0,1,1.4-15.66,12.57,12.57,0,0,1,16.73-1.14c0-.23,0-.42,0-.61,0-1.88,0-3.76,0-5.64A3,3,0,0,1,106.78.35ZM89.91,19.45a7.71,7.71,0,0,0,7.69,7.78,7.73,7.73,0,1,0,0-15.46A7.71,7.71,0,0,0,89.91,19.45Z"></path><path class="pandora-svg-2" d="M.24,7.73l2.29.06H4.8v2A12.5,12.5,0,0,1,14.74,7.2a12.08,12.08,0,0,1,8.49,5.62A12.54,12.54,0,0,1,21.8,28.06a12.72,12.72,0,0,1-17,1.23V31.4c0,1.46-.06,2.92,0,4.38a2.66,2.66,0,0,1-1.69,2.87H.24Zm12.2,4a7.73,7.73,0,1,0,7.72,7.76A7.74,7.74,0,0,0,12.44,11.77Z"></path><path class="pandora-svg-2" d="M190.76,5.78a5.21,5.21,0,0,0-.28.52A4.37,4.37,0,1,1,184.81.62a5,5,0,0,0,.51-.27h2a17.89,17.89,0,0,1,1.71.82,4.72,4.72,0,0,1,1.78,2.66ZM190.2,4.7a3.79,3.79,0,1,0-3.82,3.79A3.78,3.78,0,0,0,190.2,4.7Z"></path><path class="pandora-svg-2" d="M48.32,9.71V7.84h4.59V31.16H48.33V29.25a12.48,12.48,0,0,1-10.74,2.38A12.11,12.11,0,0,1,30.52,27a12.51,12.51,0,0,1,17.8-17.3Zm.17,9.89a7.72,7.72,0,1,0-7.93,7.63A7.75,7.75,0,0,0,48.49,19.6Z"></path><path class="pandora-svg-2" d="M179.73,7.84V31.17h-4.59V29.23a12.56,12.56,0,0,1-11.25,2.28,12.09,12.09,0,0,1-6.64-4.57,12.51,12.51,0,0,1,.41-15.41,12.74,12.74,0,0,1,3.75-3.06A12.25,12.25,0,0,1,166,7.09a10.58,10.58,0,0,1,4.81.46c1.48.55,2.89,1.3,4.34,2V7.84Zm-12.21,3.93a7.73,7.73,0,1,0,7.76,7.68A7.74,7.74,0,0,0,167.52,11.77Z"></path><path class="pandora-svg-2" d="M138.05,19.57A12.48,12.48,0,1,1,126.26,7.06,12.41,12.41,0,0,1,138.05,19.57Zm-5-.06A7.47,7.47,0,1,0,125.5,27,7.48,7.48,0,0,0,133,19.51Z"></path><path class="pandora-svg-2" d="M81.55,31.18h-5V19.62a7.45,7.45,0,1,0-14.9,0V31.16h-5v-.75c0-3.63,0-7.25,0-10.87a12.47,12.47,0,0,1,24.74-2.28A10.05,10.05,0,0,1,81.57,19c0,3.94,0,7.89,0,11.84C81.57,30.92,81.56,31,81.55,31.18Z"></path><path class="pandora-svg-2" d="M146.19,31.18h-5v-12c0-6.43,3.83-10.89,10.21-11.88.88-.13,1.78-.21,2.72-.32v5c-1,.18-2,.27-2.9.53a6.5,6.5,0,0,0-5,6.66c0,3.74,0,7.47,0,11.21Z"></path><path class="pandora-svg-2" d="M187.12,5.29l1.21,1.81c-.48.18-.79.11-1-.31s-.45-.64-.63-1a.92.92,0,0,0-1.27-.47c0,.44,0,.9,0,1.35s-.18.61-.64.45V2.21c.78,0,1.54,0,2.29,0a1.34,1.34,0,0,1,1.24,1.21,1.48,1.48,0,0,1-.76,1.64Zm-1.67-2.48V4.64a4.18,4.18,0,0,0,1.38,0,1.45,1.45,0,0,0,.82-.86.8.8,0,0,0-.81-.92C186.39,2.78,185.94,2.81,185.45,2.81Z"></path></g><g id="deezer"><g class="pandora-svg-3"><g class="pandora-svg-4"><g class="pandora-svg-5"><rect class="pandora-svg-6" x="166.65" y="5.74" width="6.16" height="209.75"></rect></g></g></g></g></svg> 