<?xml version="1.0" encoding="UTF-8"?> <svg xmlns="http://www.w3.org/2000/svg" viewBox="0 0 182 58"><defs><style> .spotify-svg-1 { fill: #53b85f; } .spotify-svg-2 { fill: #fff; } </style></defs><title>spotify</title><g id="spotify"><circle class="spotify-svg-1" cx="27.77" cy="29" r="27.08"></circle><path class="spotify-svg-1" d="M72.57,16.37a13.37,13.37,0,0,1,8.85,3.05.47.47,0,0,1,.09.63L79.4,23a.46.46,0,0,1-.66.09,12.12,12.12,0,0,0-1.82-1.17,10.27,10.27,0,0,0-4.35-1.18c-1.43,0-3.73.47-3.73,2.73,0,1.81,1.61,2.49,6.56,3.71,3.22.84,7,2.39,7,7.32,0,4.54-3.78,7.41-9,7.41A15.1,15.1,0,0,1,63.23,38a.46.46,0,0,1,0-.62l2.38-2.8a.47.47,0,0,1,.66,0,10.82,10.82,0,0,0,7.13,3c4.29,0,4.12-2.59,4.12-3,0-.82-.6-2-2.71-2.57s-7.42-1.59-9.41-3.9A6.29,6.29,0,0,1,64,23.82C64,21.09,65.75,16.37,72.57,16.37Z"></path><path class="spotify-svg-1" d="M94.68,22.28a7.69,7.69,0,0,0-5.89,2.81V23.14a.46.46,0,0,0-.45-.46H84.41a.46.46,0,0,0-.45.46V46.68a.46.46,0,0,0,.45.46h3.94a.47.47,0,0,0,.46-.46V39.35a7.67,7.67,0,0,0,6.07,2.57c3.3,0,8.62-2.65,8.62-9.74S98.5,22.28,94.68,22.28Zm-1,15.45c-2.67,0-4.93-2.32-4.93-5.63,0-2,1.26-5.55,4.88-5.55s5,2.91,5,5.55S97.14,37.73,93.66,37.73Z"></path><path class="spotify-svg-1" d="M114.82,22.28a9.92,9.92,0,0,0-10,9.86,10,10,0,1,0,10-9.86Zm0,15.45a5.44,5.44,0,0,1-5.27-5.61,5.24,5.24,0,0,1,5.27-5.57,5.37,5.37,0,0,1,5.19,5.57C120.05,35.93,117.38,37.73,114.86,37.73Z"></path><path class="spotify-svg-1" d="M137.24,26.44V23.1a.45.45,0,0,0-.46-.46h-4.47V18.11a.47.47,0,0,0-.46-.46H128a.46.46,0,0,0-.46.46v4.53h-1.89a.46.46,0,0,0-.46.46v3.34a.47.47,0,0,0,.46.46h1.89v9.46c0,2.13,1,5.5,5.2,5.5a10.52,10.52,0,0,0,4.24-1,.45.45,0,0,0,.26-.41V37.19a.36.36,0,0,0-.57-.3,3.9,3.9,0,0,1-2.23.63c-2,0-2.13-1.38-2.13-2.35V26.9h4.47A.46.46,0,0,0,137.24,26.44Z"></path><circle class="spotify-svg-1" cx="141.62" cy="17.37" r="2.98"></circle><rect class="spotify-svg-1" x="139.23" y="22.64" width="4.78" height="18.89" rx="0.46" ry="0.46"></rect><path class="spotify-svg-1" d="M148.27,26.9h-1.86a.46.46,0,0,1-.46-.46V23.1a.45.45,0,0,1,.46-.46h1.86V21.42c0-.8.13-5.9,5.84-5.9,2.83,0,3.76.64,3.76.64v3.43c0,.35-.12.63-.49.49a7.75,7.75,0,0,0-2.3-.43,2,2,0,0,0-2.06,2v.95h7a.46.46,0,0,1,.43.29l4.9,12.67L169.75,23a.46.46,0,0,1,.43-.31h4.31a.3.3,0,0,1,.27.4l-7.47,19.29c-.81,2.07-2.19,4.88-6.13,4.88a8,8,0,0,1-4.37-1.17.47.47,0,0,1-.17-.58l1.41-3a.22.22,0,0,1,.33-.1,4.8,4.8,0,0,0,2.38.72c1.56,0,2.26-1.85,2.26-1.85L157,26.9h-3.95V41.11a.47.47,0,0,1-.46.46h-3.88a.46.46,0,0,1-.45-.46Z"></path><path class="spotify-svg-1" d="M177.11,24h1.43a1.25,1.25,0,0,1,.91.31,1,1,0,0,1,.27.72h0a1,1,0,0,1-.67,1l.77,1.12H179l-.67-1h-.54v1h-.69Zm1.39,1.52c.33,0,.53-.18.53-.45h0c0-.3-.21-.45-.55-.45h-.68v.9Z"></path><path class="spotify-svg-1" d="M178.36,28.54a3,3,0,1,1,2.95-2.95A3,3,0,0,1,178.36,28.54Zm0-5.59A2.64,2.64,0,1,0,181,25.59,2.64,2.64,0,0,0,178.36,23Z"></path><path class="spotify-svg-2" d="M38.64,41.88a1.76,1.76,0,0,1-.91-.25C27.06,35.21,14.42,38.92,14.29,39a1.78,1.78,0,1,1-1-3.4c.57-.18,14.25-4.23,26.3,3a1.78,1.78,0,0,1-.92,3.3Z"></path><path class="spotify-svg-2" d="M41.71,34.58a2.09,2.09,0,0,1-1.05-.28,35.59,35.59,0,0,0-27-3.17,2.1,2.1,0,1,1-1.36-4,39.47,39.47,0,0,1,30.49,3.5,2.11,2.11,0,0,1-1,3.93Z"></path><path class="spotify-svg-2" d="M45,26.29a2.51,2.51,0,0,1-1.2-.3c-15.44-8.11-31.3-3.25-31.46-3.2a2.59,2.59,0,0,1-1.56-4.94c.73-.23,18.1-5.54,35.43,3.56A2.59,2.59,0,0,1,45,26.29Z"></path></g></svg> 