<?xml version="1.0" encoding="UTF-8"?> <svg xmlns="http://www.w3.org/2000/svg" viewBox="0 0 131 31.8"><defs><style> .tiktok-1 { fill: #25f4ee; } .tiktok-2 { fill: #fe2c55; } </style></defs><title>tiktok</title><g id="LOGOS"><g><g><path class="tiktok-1" d="M10.94,12.52V11.28a9.25,9.25,0,0,0-1.3-.09A9.63,9.63,0,0,0,4.12,28.72a9.63,9.63,0,0,1,6.82-16.2Z"></path><path class="tiktok-1" d="M11.17,26.56a4.4,4.4,0,0,0,4.39-4.24v-21h3.84A7.31,7.31,0,0,1,19.28,0H14V21a4.42,4.42,0,0,1-4.4,4.24,4.26,4.26,0,0,1-2-.51A4.4,4.4,0,0,0,11.17,26.56Z"></path><path class="tiktok-1" d="M26.57,8.45V7.29a7.32,7.32,0,0,1-4-1.18A7.25,7.25,0,0,0,26.57,8.45Z"></path><path class="tiktok-2" d="M22.6,6.11a7.28,7.28,0,0,1-1.79-4.78h-1.4A7.29,7.29,0,0,0,22.6,6.11Z"></path><path class="tiktok-2" d="M9.64,16.42a4.4,4.4,0,0,0-2,8.3,4.35,4.35,0,0,1-.83-2.56,4.41,4.41,0,0,1,4.4-4.41,4.32,4.32,0,0,1,1.3.21V12.61a9.36,9.36,0,0,0-1.3-.09h-.23v4.11A4.32,4.32,0,0,0,9.64,16.42Z"></path><path class="tiktok-2" d="M26.57,8.45v4.08a12.44,12.44,0,0,1-7.29-2.35V20.83A9.63,9.63,0,0,1,4.12,28.72a9.63,9.63,0,0,0,16.69-6.56V11.51a12.41,12.41,0,0,0,7.29,2.35V8.62A7,7,0,0,1,26.57,8.45Z"></path><path d="M19.28,20.83V10.18a12.44,12.44,0,0,0,7.29,2.35V8.45a7.25,7.25,0,0,1-4-2.34,7.29,7.29,0,0,1-3.19-4.78H15.57v21a4.39,4.39,0,0,1-8,2.4,4.4,4.4,0,0,1,2-8.3,4.32,4.32,0,0,1,1.3.21V12.52a9.63,9.63,0,0,0-6.82,16.2,9.63,9.63,0,0,0,15.16-7.89Z"></path></g><g><path d="M33.28,8.47H49.65l-1.5,4.68H43.9V30.47H38.61V13.15H33.29Z"></path><path d="M76.46,8.47H93.21L91.7,13.15H87.09V30.47h-5.3V13.15H76.47Z"></path><polygon points="50.65 15.47 55.9 15.47 55.89 30.47 50.68 30.47 50.65 15.47"></polygon><path d="M58,8.41h5.24V18.65l5.19-5.1h6.26L68.1,19.93l7.36,10.54H69.68l-4.91-7.31-1.55,1.51v5.8H58Z"></path><path d="M113.52,8.41h5.24V18.65l5.19-5.1h6.26l-6.57,6.37L131,30.47h-5.78l-4.91-7.31-1.55,1.51v5.8h-5.24Z"></path><circle cx="53.27" cy="11.11" r="2.64"></circle><path class="tiktok-1" d="M92.54,21.49a9,9,0,0,1,8.27-8.95c-.23,0-.55,0-.79,0a9,9,0,0,0,0,18l.79,0A9,9,0,0,1,92.54,21.49Z"></path><path class="tiktok-2" d="M102.85,12.51c-.24,0-.56,0-.79,0a9,9,0,0,1,0,17.9l.79,0a9,9,0,1,0,0-18Z"></path><path d="M101.43,25.85a4.37,4.37,0,1,1,4.37-4.36A4.36,4.36,0,0,1,101.43,25.85Zm0-13.34a9,9,0,1,0,9,9A9,9,0,0,0,101.43,12.51Z"></path></g></g></g></svg> 