<?xml version="1.0" encoding="UTF-8"?> <svg xmlns="http://www.w3.org/2000/svg" viewBox="0 0 171 39"><defs><style> .youtube-svg-1 { fill: red; } .youtube-svg-2 { fill: #fff; } .youtube-svg-3 { fill: #282828; } </style></defs><title>youtube</title><g id="youtube"><g><path class="youtube-svg-1" d="M53.48,6.41A6.81,6.81,0,0,0,48.67,1.6C44.43.46,27.42.46,27.42.46s-17,0-21.25,1.14a6.8,6.8,0,0,0-4.8,4.81C.23,10.65.23,19.5.23,19.5s0,8.85,1.14,13.09a6.8,6.8,0,0,0,4.8,4.81c4.25,1.14,21.25,1.14,21.25,1.14s17,0,21.25-1.14a6.81,6.81,0,0,0,4.81-4.81c1.14-4.24,1.14-13.09,1.14-13.09S54.62,10.65,53.48,6.41Z"></path><polygon class="youtube-svg-2" points="21.98 27.66 36.12 19.5 21.98 11.34 21.98 27.66"></polygon></g><g><path class="youtube-svg-3" d="M79.18,35.1a5.9,5.9,0,0,1-2.3-3.38,22.34,22.34,0,0,1-.68-6.11V22.15A20.07,20.07,0,0,1,77,16a6.22,6.22,0,0,1,2.43-3.4,7.9,7.9,0,0,1,4.34-1.07A7.33,7.33,0,0,1,88,12.58,6.21,6.21,0,0,1,90.32,16a21,21,0,0,1,.74,6.17v3.46a21.28,21.28,0,0,1-.72,6.13A6,6,0,0,1,88,35.12a7.83,7.83,0,0,1-4.37,1.07A7.83,7.83,0,0,1,79.18,35.1Zm6-3.73a11.59,11.59,0,0,0,.45-3.82V20.13a11.42,11.42,0,0,0-.45-3.76,1.61,1.61,0,0,0-3.11,0,11.48,11.48,0,0,0-.44,3.76v7.42a12.37,12.37,0,0,0,.42,3.82,1.64,1.64,0,0,0,3.13,0Z"></path><path class="youtube-svg-3" d="M161.79,25.67v1.2a32.29,32.29,0,0,0,.13,3.44,3.23,3.23,0,0,0,.57,1.68,1.59,1.59,0,0,0,1.32.52,1.67,1.67,0,0,0,1.65-.93,8.14,8.14,0,0,0,.49-3.11l4.63.27c0,.21,0,.49,0,.85a6.32,6.32,0,0,1-1.8,4.94,7.38,7.38,0,0,1-5.12,1.64c-2.64,0-4.5-.83-5.56-2.49s-1.6-4.23-1.6-7.7V21.82c0-3.58.56-6.19,1.66-7.84s3-2.47,5.66-2.47a7.52,7.52,0,0,1,4.24,1,5.46,5.46,0,0,1,2.08,3.15,22.9,22.9,0,0,1,.6,5.91v4.09Zm.68-10a3.21,3.21,0,0,0-.55,1.65,33.12,33.12,0,0,0-.13,3.49v1.71h3.92V20.77a30.26,30.26,0,0,0-.15-3.49,3.33,3.33,0,0,0-.57-1.67,1.56,1.56,0,0,0-1.26-.48A1.51,1.51,0,0,0,162.47,15.63Z"></path><path class="youtube-svg-3" d="M66.11,25.22,60,3.17h5.33l2.14,10q.81,3.71,1.2,6.3h.16Q69.1,17.6,70,13.2l2.22-10h5.33l-6.19,22V35.8H66.11Z"></path><path class="youtube-svg-3" d="M108.39,12V35.8h-4.2l-.47-2.92h-.12a5.48,5.48,0,0,1-5.13,3.31A4,4,0,0,1,95,34.63a8.33,8.33,0,0,1-1.13-4.86V12h5.37v17.5a5.45,5.45,0,0,0,.35,2.28,1.21,1.21,0,0,0,1.17.68,2.44,2.44,0,0,0,1.34-.43,2.68,2.68,0,0,0,1-1.09V12Z"></path><path class="youtube-svg-3" d="M135.92,12V35.8h-4.2l-.47-2.92h-.11A5.5,5.5,0,0,1,126,36.19a4,4,0,0,1-3.5-1.56,8.33,8.33,0,0,1-1.13-4.86V12h5.37v17.5a5.45,5.45,0,0,0,.35,2.28,1.21,1.21,0,0,0,1.17.68A2.44,2.44,0,0,0,129.6,32a2.68,2.68,0,0,0,1-1.09V12Z"></path><path class="youtube-svg-3" d="M123,7.48h-5.33V35.8h-5.25V7.48h-5.32V3.17H123Z"></path><path class="youtube-svg-3" d="M153.68,15.77a6.18,6.18,0,0,0-1.57-3.27,4.27,4.27,0,0,0-3-1,5,5,0,0,0-2.76.84,5.72,5.72,0,0,0-2,2.19h0V2h-5.17V35.8h4.43l.55-2.26h.11a4.59,4.59,0,0,0,1.87,1.91,5.5,5.5,0,0,0,2.76.7,4.24,4.24,0,0,0,4-2.51q1.28-2.51,1.28-7.84V22A30.77,30.77,0,0,0,153.68,15.77Zm-4.92,9.72a30.82,30.82,0,0,1-.21,4.09,4.39,4.39,0,0,1-.72,2.1,1.68,1.68,0,0,1-1.36.62,2.5,2.5,0,0,1-1.23-.31,2.4,2.4,0,0,1-.91-.93V17.52a3.33,3.33,0,0,1,.93-1.59,2,2,0,0,1,1.44-.63A1.46,1.46,0,0,1,148,16a5,5,0,0,1,.62,2.15,39.79,39.79,0,0,1,.17,4.32Z"></path></g></g></svg> 